<?xml version="1.0"?>


<svg xmlns="http://www.w3.org/2000/svg" xml:space="preserve" width="56.861mm" height="55.8705mm" version="1.1" style="shape-rendering:geometricPrecision; text-rendering:geometricPrecision; image-rendering:optimizeQuality; fill-rule:evenodd; clip-rule:evenodd" viewBox="0 0 5843.39 5741.6" xmlns:xlink="http://www.w3.org/1999/xlink" xmlns:xodm="http://www.corel.com/coreldraw/odm/2003">
 <defs>
  
     <mask id="id0">
  <radialGradient id="id1" gradientUnits="userSpaceOnUse" cx="4717.07" cy="-1385.94" r="1071.37" fx="4717.07" fy="-1385.94">
   <stop offset="0" style="stop-opacity:1; stop-color:white"></stop>
   <stop offset="1" style="stop-opacity:0; stop-color:white"></stop>
  </radialGradient>
      <rect style="fill:url(#id1)" x="2438.29" y="-10.28" width="2134.17" height="3059.99"></rect>
     </mask>
  <radialGradient id="id2" gradientUnits="userSpaceOnUse" gradientTransform="matrix(1.0061 -0.766342 0.592845 0.77832 -1515 2069)" cx="1966.41" cy="2536.07" r="588.24" fx="1966.41" fy="2536.07">
   <stop offset="0" style="stop-opacity:1; stop-color:#023EDC"></stop>
   <stop offset="1" style="stop-opacity:1; stop-color:#0936C5"></stop>
  </radialGradient>
  <radialGradient id="id3" gradientUnits="userSpaceOnUse" gradientTransform="matrix(1.26069 -0.963294 1.16568 1.26604 -3400 726)" cx="1468.07" cy="2588.64" r="486.38" fx="1468.07" fy="2588.64">
   <stop offset="0" style="stop-opacity:1; stop-color:#10ABFD"></stop>
   <stop offset="0.631373" style="stop-opacity:1; stop-color:#118CFD"></stop>
   <stop offset="1" style="stop-opacity:1; stop-color:#116DFD"></stop>
  </radialGradient>
  <radialGradient id="id4" gradientUnits="userSpaceOnUse" gradientTransform="matrix(-0.701992 1.26724 -1.26723 -0.701992 4848 -1013)" cx="2117.65" cy="981.58" r="1132.95" fx="2117.65" fy="981.58">
   <stop offset="0" style="stop-opacity:1; stop-color:#10ABFD"></stop>
   <stop offset="0.760784" style="stop-opacity:1; stop-color:#118CFD"></stop>
   <stop offset="1" style="stop-opacity:1; stop-color:#116DFD"></stop>
  </radialGradient>
  <radialGradient id="id5" gradientUnits="userSpaceOnUse" gradientTransform="matrix(1.55945 -1.17957 1.1793 1.41436 -4715 1039)" cx="1958.58" cy="3069.21" r="602.25" fx="1958.58" fy="3069.21">
   <stop offset="0" style="stop-opacity:1; stop-color:#098FFD"></stop>
   <stop offset="0.670588" style="stop-opacity:1; stop-color:#0A65EB"></stop>
   <stop offset="1" style="stop-opacity:1; stop-color:#0B3BDA"></stop>
  </radialGradient>
  <radialGradient id="id6" gradientUnits="userSpaceOnUse" gradientTransform="matrix(0.881596 1.74919 -1.12851 0.597476 821 -5381)" cx="3167.2" cy="395.14" r="1365.33" fx="3167.2" fy="395.14">
   <stop offset="0" style="stop-opacity:1; stop-color:#093BD1"></stop>
   <stop offset="0.619608" style="stop-opacity:1; stop-color:#5042E7"></stop>
   <stop offset="1" style="stop-opacity:1; stop-color:#9748FC"></stop>
  </radialGradient>
  <radialGradient id="id7" gradientUnits="userSpaceOnUse" gradientTransform="matrix(1.57253 0.861741 -0.504028 0.80529 -558 -2110)" cx="2957" cy="2251.97" r="833.84" fx="2957" fy="2251.97">
   <stop offset="0" style="stop-opacity:1; stop-color:#2071FD"></stop>
   <stop offset="0.690196" style="stop-opacity:1; stop-color:#4651EF"></stop>
   <stop offset="1" style="stop-opacity:1; stop-color:#6C31E1"></stop>
  </radialGradient>
 </defs>
 <g id="Layer_x0020_1">
  <metadata id="CorelCorpID_0Corel-Layer"></metadata>
  <g id="_1034015376">
   <g>
    <g>
     <path fill="#FFFFFF" d="M4307.06 4643.11l218.07 0 331.24 -822.32 -191.43 0 -246.36 659.16 -246.37 -659.16 -196.42 0 331.28 822.32zm1042.39 21.65c136.49,0 256.64,-62.07 304.55,-119.07l0 97.42 164.73 0 0 -404.34c0,-264.58 -179.71,-439.33 -437.64,-439.33 -261.26,0 -444.3,179.73 -444.3,440.98 0,276.22 206.34,424.33 412.66,424.33l0 0zm29.98 -166.41c-156.42,0 -261.25,-111.5 -261.25,-266.25 0,-154.77 104.83,-266.27 261.25,-266.27 156.42,0 259.6,111.5 259.6,266.27 0,154.75 -103.18,266.25 -259.6,266.25zm-4956.42 166.41c136.49,0 256.64,-62.07 304.54,-119.07l0 97.42 164.74 0 0 -404.34c0,-264.58 -179.72,-439.33 -437.65,-439.33 -261.25,0 -444.29,179.73 -444.29,440.98 0,276.22 206.34,424.33 412.66,424.33l0 0zm29.97 -166.41c-156.42,0 -261.25,-111.5 -261.25,-266.25 0,-154.77 104.83,-266.27 261.25,-266.27 156.43,0 259.6,111.5 259.6,266.27 0,154.75 -103.17,266.25 -259.6,266.25zm1049.38 166.41c243.01,0 406.16,-141.5 406.16,-416.15l0 -427.82 -179.78 0 0 427.82c0,166.43 -89.9,249.69 -226.38,249.69 -136.5,0 -226.4,-83.26 -226.4,-249.69l0 -427.82 -179.78 0 0 427.82c0,276.32 163.14,416.15 406.18,416.15zm553.14 -21.65l213.07 0 228.07 -326.25 229.72 326.25 218.04 0 -314.61 -419.47 301.29 -402.84 -213.04 0 -214.76 307.93 -214.72 -307.93 -219.73 0 299.64 402.84 -312.95 419.47zm1397.11 -144.81c-156.47,0 -261.34,-111.54 -261.34,-266.36 0,-154.82 104.87,-266.32 261.34,-266.32 156.47,0 259.68,111.5 259.68,266.32 0,154.82 -103.21,266.36 -259.68,266.36zm0 166.46c259.68,0 442.79,-183.1 442.79,-432.82 0,-249.69 -183.11,-432.79 -442.79,-432.79 -259.68,0 -442.79,183.1 -442.79,432.79 0,249.72 183.11,432.82 442.79,432.82z"></path>
    </g>
    <path fill="#FFFFFF" d="M687.88 5741.6c179.92,0 306.79,-126.85 306.79,-299.85 0,-172.99 -126.86,-299.85 -306.79,-299.85 -179.91,0 -306.78,126.86 -306.78,299.85 0,173 126.86,299.85 306.78,299.85zm-419.88 -849.16c54.27,3.35 85.72,15.1 103.28,24.4l-16.13 100.73c-13.63,-5.04 -40.9,-9.51 -57.76,-9.51 -63.44,0 -95.6,22.25 -95.6,115.77l0 21.35 135.32 0 0 113.03 -135.32 0 0 468.19 -124.57 0 0 -468.19 -77.2 0 0 -113.03 77.2 0 0 -21.35c0,-156.83 73.83,-229.88 190.8,-231.39zm3836.74 847.58c54.27,-3.35 85.72,-15.1 103.28,-24.39l-16.13 -100.74c-13.63,5.04 -40.9,9.51 -57.78,9.51 -63.43,0 -95.59,-22.23 -95.59,-115.77l0 -250.96 151.65 0 0 -113.03 -151.65 0 0 -189.58 -124.57 0 0 189.58 -77.2 0 0 113.03 77.2 0 0 250.96c0,156.83 73.82,229.88 190.8,231.39zm767.31 1.58c179.92,0 306.8,-126.85 306.8,-299.85 0,-172.99 -126.88,-299.85 -306.8,-299.85 -179.91,0 -306.77,126.86 -306.77,299.85 0,173 126.85,299.85 306.77,299.85zm0 -115.32c-108.41,0 -181.05,-77.27 -181.05,-184.53 0,-107.25 72.65,-184.52 181.05,-184.52 108.42,0 179.92,77.27 179.92,184.52 0,107.26 -71.5,184.53 -179.92,184.53zm408.54 100.34l124.56 0 0 -296.39c0,-115.33 62.29,-173 156.85,-173 94.57,0 156.84,57.66 156.84,173l0 296.39 124.55 0 0 -296.39c0,-191.45 -113.02,-288.33 -281.39,-288.33 -168.39,0 -281.42,98.04 -281.42,288.33l0 296.39zm-892.58 -622.36c48.54,0 84.35,-36.95 84.35,-85.5 0,-48.51 -35.81,-85.47 -84.35,-85.47 -48.52,0 -84.33,36.97 -84.33,85.47 0,48.55 35.81,85.5 84.33,85.5zm-907.9 635.51c80.42,-8.52 148.47,-46.05 177.7,-80.83l0 67.61 0.88 0 0 0.07 114.16 0 0 -280.24c0,-97.72 -35.37,-177.73 -95.46,-231.19l-0.3 -0.27 -4.49 -3.89c-52.37,-44.78 -122.64,-69.98 -204.19,-69.98 -181.31,0 -308.34,124.74 -308.34,306.04 0,186.2 135.09,288.52 274.05,294.23l0.09 0 5.53 0.17c2.63,0.07 5.25,0.12 7.88,0.12l0 0c11.04,0 21.88,-0.62 32.47,-1.84zm-12.85 -113.69c-11.83,0 -23.24,-0.92 -34.17,-2.69l-0.12 -0.02 -3.48 -0.61 -0.31 -0.07c-86.38,-16.36 -141.85,-87.19 -141.85,-180.93 0,-107.25 72.66,-184.52 181.06,-184.52 40.38,0 75.64,10.72 103.97,29.7 47.23,32.15 75.05,87.42 75.05,154.35 0,107.41 -71.59,184.78 -180.15,184.78zm857.2 100.46l124.78 0 0 -550.09 -124.78 0 0 550.09zm-3636.59 -100.26c-108.41,0 -181.06,-77.27 -181.06,-184.53 0,-107.25 72.66,-184.52 181.06,-184.52 108.42,0 179.92,77.27 179.92,184.52 0,107.26 -71.5,184.53 -179.92,184.53zm689.95 115.32c168.37,0 281.39,-98.03 281.39,-288.3l0 -296.41 -124.55 0 0 296.41c0,115.31 -62.28,172.98 -156.84,172.98 -94.58,0 -156.85,-57.66 -156.85,-172.98l0 -296.41 -124.56 0 0 296.41c0,191.43 113.02,288.3 281.42,288.3zm406.21 -14.98l124.56 0 0 -296.39c0,-115.33 62.29,-173 156.85,-173 94.57,0 156.84,57.66 156.84,173l0 296.39 124.55 0 0 -296.39c0,-191.45 -113.02,-288.33 -281.39,-288.33 -168.39,0 -281.42,98.04 -281.42,288.33l0 296.39zm972.5 14.98c177.61,0 303.32,-119.94 303.32,-304.45l0 -529.37 -124.56 0 0 340.22c-40.36,-68.05 -114.18,-106.11 -200.67,-106.11 -143.01,0 -286.02,102.65 -286.02,295.26 0,179.89 126.85,304.45 307.93,304.45zm-1.15 -115.32c-108.42,0 -181.06,-77.27 -181.06,-184.53 0,-107.25 72.65,-184.52 181.06,-184.52 107.27,0 179.91,77.27 179.91,184.52 0,107.26 -72.65,184.53 -179.91,184.53z"></path>
   </g>
   <g>
    <path fill="url(#id2)" d="M1330.31 2426.92c119.72,-207.58 410.44,-418.79 800.35,-420.91 143.52,-0.77 394.14,43.23 467.35,93.28 273.71,165.35 -569.52,1011.13 -976.42,965.03 -267.54,-75.18 -426.36,-353.66 -291.28,-637.4z"></path>
    <path fill="url(#id3)" d="M3112.95 2450.62c-34.99,-112.5 -236.32,-339.35 -547.72,-366.44 -127.1,0 -692.88,472.95 -692.88,472.95 -32.42,25.47 -355.93,298.3 -292.21,493.57 13.5,5.08 27.32,9.66 41.46,13.63 348.12,99.03 589,-125.74 635.84,-162.54 0,0 431.44,-389.56 431.44,-389.56 236.48,-211.25 278.19,-175.83 301.7,-153.95l128.22 119.26c-1.59,-9.01 -3.48,-18.01 -5.85,-26.91z"></path>
    <path fill="url(#id4)" d="M4472.22 2908.8c-37.77,48.76 -89.77,93.39 -160.46,129.62 -361.69,139.1 -641.32,-47.35 -744.26,-143.9l-576.52 -536.24c-3.09,-2.88 -6.49,-5.97 -10.62,-8.72 -156.53,-128.27 -274.49,-205.94 -450.74,-281.13 433.34,46.52 934.8,314.36 1441.36,483.47 271.53,118.96 424.17,241.5 501.24,356.91z"></path>
    <path fill="url(#id5)" d="M2824.57 1.66c388.42,-11.72 512.72,35.64 685.44,234.95 0.28,0.3 28.48,32.54 58.23,95.16 202.38,425.9 952.83,2072.31 952.83,2072.31 38.9,90.76 130.76,459.86 -209.72,634.32l-2.73 1.02c-34.74,-132.69 -216.74,-204.82 -257.9,-319.42 0,0 -1006.33,-2110.78 -1006.33,-2110.78 -54.14,-97.78 -196.74,-92.34 -265.11,12.92 -459.92,198.84 -435.77,-487.82 45.29,-620.49z"></path>
    <path fill="url(#id6)" d="M1330.31 2426.92l956.81 -2096.29c29.18,-63.9 149.04,-317.25 537.46,-328.97 388.42,-11.72 512.72,35.64 685.44,234.95 0.2,0.21 13.72,15.67 31.88,45.86 -330.53,-351.96 -665.78,133.1 -762.61,339.67l-1146.14 2445.29c-3.85,-1.02 -7.68,-2.02 -11.55,-3.13 -267.54,-75.18 -426.36,-353.66 -291.28,-637.4z"></path>
    <path fill="url(#id7)" d="M2130.63 2006.06l-496.48 1059.23c-4.2,-0.29 -8.44,-0.51 -12.56,-0.98 -267.54,-75.18 -426.36,-353.66 -291.28,-637.4 119.71,-207.57 410.43,-418.73 800.32,-420.86z"></path>
    <path fill="white" style="mask:url(#id0)" d="M2824.57 1.66c388.42,-11.72 512.72,35.64 685.44,234.95 0.28,0.3 28.48,32.54 58.23,95.16 202.38,425.9 952.83,2072.31 952.83,2072.31 38.9,90.76 130.76,459.86 -209.72,634.32l-2.73 1.02c-34.74,-132.69 -216.74,-204.82 -257.9,-319.42 0,0 -1006.33,-2110.78 -1006.33,-2110.78 -54.14,-97.78 -196.74,-92.34 -265.11,12.92 -459.92,198.84 -435.77,-487.82 45.29,-620.49z"></path>
   </g>
  </g>
 </g>
</svg>